<svg height='300px' width='300px'  fill="#000000" xmlns="http://www.w3.org/2000/svg" xmlns:xlink="http://www.w3.org/1999/xlink" version="1.1" x="0px" y="0px" viewBox="0 0 100 100" style="enable-background:new 0 0 100 100;" xml:space="preserve"><path d="M33,82c0.6,0,1-0.4,1-1c0-13.1,8.1-21.4,16.7-30.2C59.2,42,68,33,68,19c0-0.6-0.4-1-1-1s-1,0.4-1,1  c0,13.2-8.1,21.5-16.7,30.4C40.8,58.1,32,67.1,32,81C32,81.6,32.4,82,33,82z"></path><path d="M67,82c0.6,0,1-0.4,1-1c0-11.7-5.9-19.8-12.3-26.7c-0.4-0.4-1-0.4-1.4-0.1c-0.4,0.4-0.4,1-0.1,1.4  C60.4,62.3,66,69.9,66,81C66,81.6,66.4,82,67,82z"></path><path d="M33,18c-0.6,0-1,0.4-1,1c0,11.7,5.9,19.8,12.3,26.7c0.2,0.2,0.5,0.3,0.7,0.3c0.2,0,0.5-0.1,0.7-0.3  c0.4-0.4,0.4-1,0.1-1.4C39.6,37.7,34,30.1,34,19C34,18.4,33.6,18,33,18z"></path><path d="M38,78c0,0.6,0.4,1,1,1h22c0.6,0,1-0.4,1-1s-0.4-1-1-1H39C38.4,77,38,77.4,38,78z"></path><path d="M39,73c0,0.6,0.4,1,1,1h20c0.6,0,1-0.4,1-1s-0.4-1-1-1H40C39.4,72,39,72.4,39,73z"></path><path d="M41,68c0,0.6,0.4,1,1,1h16c0.6,0,1-0.4,1-1s-0.4-1-1-1H42C41.4,67,41,67.4,41,68z"></path><path d="M44,63c0,0.6,0.4,1,1,1h10c0.6,0,1-0.4,1-1s-0.4-1-1-1H45C44.4,62,44,62.4,44,63z"></path><path d="M51,59c0.6,0,1-0.4,1-1s-0.4-1-1-1h-2c-0.6,0-1,0.4-1,1s0.4,1,1,1H51z"></path><path d="M62,22c0-0.6-0.4-1-1-1H39c-0.6,0-1,0.4-1,1s0.4,1,1,1h22C61.6,23,62,22.6,62,22z"></path><path d="M61,27c0-0.6-0.4-1-1-1H40c-0.6,0-1,0.4-1,1s0.4,1,1,1h20C60.6,28,61,27.6,61,27z"></path><path d="M59,32c0-0.6-0.4-1-1-1H42c-0.6,0-1,0.4-1,1s0.4,1,1,1h16C58.6,33,59,32.6,59,32z"></path><path d="M56,37c0-0.6-0.4-1-1-1H45c-0.6,0-1,0.4-1,1s0.4,1,1,1h10C55.6,38,56,37.6,56,37z"></path><path d="M49,41c-0.6,0-1,0.4-1,1s0.4,1,1,1h2c0.6,0,1-0.4,1-1s-0.4-1-1-1H49z"></path></svg>